<?xml version="1.0" encoding="utf-8"?>
<!-- Generator: Adobe Illustrator 15.0.0, SVG Export Plug-In . SVG Version: 6.00 Build 0)  -->
<!DOCTYPE svg PUBLIC "-//W3C//DTD SVG 1.1//EN" "http://www.w3.org/Graphics/SVG/1.1/DTD/svg11.dtd">
<svg version="1.1" id="Warstwa_1" xmlns="http://www.w3.org/2000/svg" xmlns:xlink="http://www.w3.org/1999/xlink" x="0px" y="0px"
	 width="538.583px" height="538.584px" viewBox="0 0 538.583 538.584" enable-background="new 0 0 538.583 538.584"
	 xml:space="preserve">
<g id="Warstwa_10_kopia_2">
	<path fill="#FFFFFF" stroke="#000000" stroke-linecap="round" stroke-linejoin="round" d="M90.041,524.411V22.663
		c-6.424-8.299-18.215-8.489-20.552-8.489c-2.336,0-14.127,0.19-20.551,8.489v501.748H90.041z"/>
	<path fill="#FFFFFF" stroke="#000000" stroke-linecap="round" stroke-linejoin="round" d="M157.06,524.411V22.663
		c-6.424-8.299-18.215-8.489-20.552-8.489c-2.336,0-14.127,0.19-20.551,8.489v501.748H157.06z"/>
	<path fill="#FFFFFF" stroke="#000000" stroke-linecap="round" stroke-linejoin="round" d="M224.034,524.411V22.663
		c-6.424-8.299-18.215-8.489-20.552-8.489c-2.336,0-14.127,0.19-20.551,8.489v501.748H224.034z"/>
	<path fill="#FFFFFF" stroke="#000000" stroke-linecap="round" stroke-linejoin="round" d="M291.217,524.411V22.663
		c-6.424-8.299-18.215-8.489-20.553-8.489c-2.335,0-14.126,0.19-20.551,8.489v501.748H291.217z"/>
	<path fill="#FFFFFF" stroke="#000000" stroke-linecap="round" stroke-linejoin="round" d="M357.985,524.411V22.663
		c-6.426-8.299-18.217-8.489-20.555-8.489c-2.336,0-14.127,0.19-20.551,8.489v501.748H357.985z"/>
	<path fill="#FFFFFF" stroke="#000000" stroke-linecap="round" stroke-linejoin="round" d="M425.167,524.411V22.663
		c-6.424-8.299-18.215-8.489-20.553-8.489c-2.336,0-14.127,0.19-20.553,8.489v501.748H425.167z"/>
	<path fill="#FFFFFF" stroke="#000000" stroke-linecap="round" stroke-linejoin="round" d="M492.141,524.411V22.663
		c-6.424-8.299-18.215-8.489-20.551-8.489s-14.127,0.19-20.551,8.489v501.748H492.141z"/>
</g>
<g id="Warstwa_5_kopia_4">
	
		<rect x="43.417" y="102.048" fill="#FFFFFF" stroke="#000000" stroke-linecap="round" stroke-linejoin="round" width="455.425" height="19.843"/>
	
		<rect x="43.417" y="457.798" fill="#FFFFFF" stroke="#000000" stroke-linecap="round" stroke-linejoin="round" width="455.425" height="19.842"/>
</g>
<g id="Warstwa_10_kopia_3">
	<path fill="#FFFFFF" stroke="#000000" stroke-linecap="round" stroke-linejoin="round" d="M55.276,524.411V22.663
		c-6.424-8.299-18.215-8.489-20.552-8.489c-2.336,0-14.127,0.19-20.551,8.489v501.748H55.276z"/>
	<path fill="#FFFFFF" stroke="#000000" stroke-linecap="round" stroke-linejoin="round" d="M122.294,524.411V22.663
		c-6.424-8.299-18.215-8.489-20.552-8.489c-2.336,0-14.127,0.19-20.551,8.489v501.748H122.294z"/>
	<path fill="#FFFFFF" stroke="#000000" stroke-linecap="round" stroke-linejoin="round" d="M189.269,524.411V22.663
		c-6.424-8.299-18.215-8.489-20.552-8.489c-2.336,0-14.127,0.19-20.551,8.489v501.748H189.269z"/>
	<path fill="#FFFFFF" stroke="#000000" stroke-linecap="round" stroke-linejoin="round" d="M256.451,524.411V22.663
		c-6.424-8.299-18.215-8.489-20.552-8.489c-2.336,0-14.127,0.19-20.551,8.489v501.748H256.451z"/>
	<path fill="#FFFFFF" stroke="#000000" stroke-linecap="round" stroke-linejoin="round" d="M323.219,524.411V22.663
		c-6.424-8.299-18.215-8.489-20.553-8.489c-2.336,0-14.127,0.19-20.551,8.489v501.748H323.219z"/>
	<path fill="#FFFFFF" stroke="#000000" stroke-linecap="round" stroke-linejoin="round" d="M390.401,524.411V22.663
		c-6.426-8.299-18.217-8.489-20.553-8.489s-14.127,0.19-20.551,8.489v501.748H390.401z"/>
	<path fill="#FFFFFF" stroke="#000000" stroke-linecap="round" stroke-linejoin="round" d="M457.375,524.411V22.663
		c-6.424-8.299-18.215-8.489-20.551-8.489s-14.127,0.19-20.553,8.489v501.748H457.375z"/>
	<path fill="#FFFFFF" stroke="#000000" stroke-linecap="round" stroke-linejoin="round" d="M524.409,524.411V22.663
		c-6.424-8.299-18.215-8.489-20.551-8.489s-14.127,0.19-20.553,8.489v501.748H524.409z"/>
</g>
</svg>
