<?xml version="1.0" encoding="utf-8"?>
<!-- Generator: Adobe Illustrator 15.0.0, SVG Export Plug-In . SVG Version: 6.00 Build 0)  -->
<!DOCTYPE svg PUBLIC "-//W3C//DTD SVG 1.1//EN" "http://www.w3.org/Graphics/SVG/1.1/DTD/svg11.dtd">
<svg version="1.1" id="Warstwa_1" xmlns="http://www.w3.org/2000/svg" xmlns:xlink="http://www.w3.org/1999/xlink" x="0px" y="0px"
	 width="538.583px" height="538.584px" viewBox="0 0 538.583 538.584" enable-background="new 0 0 538.583 538.584"
	 xml:space="preserve">
<g id="Warstwa_10_kopia_7">
	<path fill="#FFFFFF" stroke="#000000" stroke-linecap="round" stroke-linejoin="round" d="M283.813,524.411V150.224
		c-6.424-8.302-18.219-8.491-20.556-8.491c-2.336,0-14.127,0.189-20.551,8.491v374.187H283.813z"/>
	<path fill="#FFFFFF" stroke="#000000" stroke-linecap="round" stroke-linejoin="round" d="M355.176,524.411V65.155
		c-6.424-8.272-18.215-8.461-20.553-8.461c-2.336,0-14.127,0.188-20.551,8.461V524.41L355.176,524.411L355.176,524.411z"/>
	<path fill="#FFFFFF" stroke="#000000" stroke-linecap="round" stroke-linejoin="round" d="M212.447,524.411V235.298
		c-6.424-8.335-18.215-8.525-20.552-8.525c-2.336,0-14.127,0.189-20.551,8.525v289.113H212.447z"/>
</g>
<g id="Warstwa_5_kopia_4">
	
		<rect x="165.014" y="457.798" fill="#FFFFFF" stroke="#000000" stroke-linecap="round" stroke-linejoin="round" width="210.586" height="19.842"/>
	<polygon fill="#FFFFFF" stroke="#000000" stroke-linecap="round" stroke-linejoin="round" points="382.014,117.416 
		156.845,381.313 141.748,368.438 366.92,104.539 	"/>
</g>
<g id="Warstwa_10_kopia_6">
	<path fill="#FFFFFF" stroke="#000000" stroke-linecap="round" stroke-linejoin="round" d="M319.602,524.411V107.698
		c-6.424-8.294-18.215-8.484-20.553-8.484c-2.336,0-14.127,0.19-20.551,8.484V524.41L319.602,524.411L319.602,524.411z"/>
	<path fill="#FFFFFF" stroke="#000000" stroke-linecap="round" stroke-linejoin="round" d="M248.235,524.411V192.735
		c-6.424-8.292-18.215-8.482-20.552-8.482c-2.336,0-14.127,0.19-20.551,8.482v331.676H248.235z"/>
	<path fill="#FFFFFF" stroke="#000000" stroke-linecap="round" stroke-linejoin="round" d="M176.873,524.411V277.782
		c-6.424-8.3-18.215-8.49-20.552-8.49c-2.336,0-14.127,0.19-20.551,8.49v246.629H176.873z"/>
	<path fill="#FFFFFF" stroke="#000000" stroke-linecap="round" stroke-linejoin="round" d="M390.893,524.411V22.655
		c-6.424-8.292-18.215-8.481-20.553-8.481c-2.336,0-14.127,0.19-20.551,8.481V524.41L390.893,524.411L390.893,524.411z"/>
</g>
</svg>
