<?xml version="1.0" encoding="utf-8"?>
<!-- Generator: Adobe Illustrator 15.0.0, SVG Export Plug-In . SVG Version: 6.00 Build 0)  -->
<!DOCTYPE svg PUBLIC "-//W3C//DTD SVG 1.1//EN" "http://www.w3.org/Graphics/SVG/1.1/DTD/svg11.dtd">
<svg version="1.1" id="Warstwa_1" xmlns="http://www.w3.org/2000/svg" xmlns:xlink="http://www.w3.org/1999/xlink" x="0px" y="0px"
	 width="538.583px" height="538.584px" viewBox="0 0 538.583 538.584" enable-background="new 0 0 538.583 538.584"
	 xml:space="preserve">
<g id="Warstwa_10_kopia_3">
	<path fill="#FFFFFF" stroke="#000000" stroke-linecap="round" stroke-linejoin="round" d="M211.901,524.411V22.663
		c-6.424-8.299-18.215-8.489-20.552-8.489c-2.336,0-14.127,0.19-20.551,8.489v501.748H211.901z"/>
	<path fill="#FFFFFF" stroke="#000000" stroke-linecap="round" stroke-linejoin="round" d="M283.381,524.411V22.663
		c-6.412-8.299-18.191-8.489-20.528-8.489c-2.336,0-14.127,0.19-20.551,8.489v501.748H283.381z"/>
	<path fill="#FFFFFF" stroke="#000000" stroke-linecap="round" stroke-linejoin="round" d="M354.743,524.411V22.663
		c-6.424-8.299-18.215-8.489-20.551-8.489s-14.127,0.19-20.553,8.489v501.748H354.743z"/>
</g>
<g id="Warstwa_5_kopia_4">
	
		<rect x="164.609" y="99.214" fill="#FFFFFF" stroke="#000000" stroke-linecap="round" stroke-linejoin="round" width="216.513" height="19.843"/>
	
		<rect x="164.609" y="457.798" fill="#FFFFFF" stroke="#000000" stroke-linecap="round" stroke-linejoin="round" width="205.3" height="19.842"/>
</g>
<g id="Warstwa_10_kopia_6">
	<path fill="#FFFFFF" stroke="#000000" stroke-linecap="round" stroke-linejoin="round" d="M176.468,524.411V22.663
		c-6.424-8.299-18.215-8.489-20.552-8.489c-2.336,0-14.127,0.19-20.551,8.489v501.748H176.468z"/>
	<path fill="#FFFFFF" stroke="#000000" stroke-linecap="round" stroke-linejoin="round" d="M247.83,524.411V22.663
		c-6.424-8.299-18.215-8.489-20.552-8.489c-2.336,0-14.127,0.19-20.551,8.489v501.748H247.83z"/>
	<path fill="#FFFFFF" stroke="#000000" stroke-linecap="round" stroke-linejoin="round" d="M319.168,524.411V22.663
		c-6.424-8.299-18.215-8.489-20.553-8.489c-2.337,0-14.128,0.19-20.539,8.489v501.748H319.168z"/>
	<path fill="#FFFFFF" stroke="#000000" stroke-linecap="round" stroke-linejoin="round" d="M390.459,524.411V22.663
		c-6.424-8.299-18.215-8.489-20.553-8.489c-2.336,0-14.127,0.19-20.551,8.489v501.748H390.459z"/>
</g>
</svg>
